<svg xmlns="http://www.w3.org/2000/svg" viewBox="0 0 431.06 82.48"><title>hero</title><path d="M49.06,215.41c2.39-.9,15.29-.9,18.12.2-2.63.3-2.92,1.79-2.81,3.7.11,1.76-.19,3.39,2.09,4.26,1.7.65,1.53,2.58,1.53,4.2,0,12,.07,24-.06,36,0,2.55.56,3.72,3.27,3.33,1.15-.16,2.55-.32,3.34.75,1.2,1.64.72,3.05-1.22,3.69-1.13.37-1.29,1.08-1.21,2,.1,1.3,1.08,1.15,2,1.22,3.7.32,4.47,1.13,4.54,4.75,0,1.19,0,2.38,0,3.57-.07,3.56-.76,4.39-4.26,4.65-1.54.12-2.13.64-2.43,2.24-.92,4.9-3.76,7.11-8.73,7.16-3.57,0-7.15,0-10.72,0-5.55,0-8.71-3-8.87-8.61-.14-4.66-.06-9.33-.06-14,0-1.41.1-2.74-1.78-3.24a1.91,1.91,0,0,1-1.23-2.43A2.39,2.39,0,0,1,43,267.12c1.45-.16,3.33.68,4.26-.53s.38-3.26.39-4.93q0-16.85,0-33.67c0-2.19.24-4,2.65-5.1C52.27,222,51.35,216.88,49.06,215.41Zm9,56.29c-3.57,0-7.15.06-10.73,0-1.72-.05-2.55.42-2.51,2.32.1,4.07.08,8.15,0,12.22,0,1.6.44,2.36,2.19,2.34,7.25-.06,14.51,0,21.76,0,1.34,0,2-.41,2-1.88-.06-4.27-.07-8.55,0-12.82,0-1.74-.65-2.22-2.28-2.18C65,271.76,61.53,271.7,58.05,271.7Zm-5.93-9.57c-.41.73-1.06.6-1.61.61-1.93,0-1.46,1.43-1.57,2.55-.13,1.49.65,1.84,2,1.83,4.56-.05,9.12,0,13.67,0,1.26,0,2.08-.23,2.06-1.77-.06-4.55,0-9.11,0-13.67,0-1.32-.68-1.71-1.85-1.7-4.66,0-9.31,0-14,0-1.69,0-1.8.86-1.9,2.23-.18,2.55,2.5,1.13,3.29,2.25-.94,1.18-3-.2-3.2,1.79-.26,2.48,2.58.62,3.06,2-.52,1.57-3.16-.2-3.05,2C49.11,262.25,51.32,260.79,52.12,262.13Zm.41-27.33v3c0,8.36,0,8.36,8.43,7.89h.3c1.26.11,1.8-.44,1.8-1.72q0-8.94,0-17.88c0-1.48-.76-1.88-2-1.86-2.09,0-4.18,0-6.26,0-1.65-.06-2.32.58-2.26,2.28C52.6,229.24,52.53,232,52.53,234.8Zm5.09,61.08v0c2.18,0,4.37,0,6.55,0a6.47,6.47,0,0,0,5.32-2.81c.58-.78,1.3-1.78.84-2.71s-1.6-.53-2.45-.53c-6.35,0-12.71-.05-19.06,0-1.18,0-3-.79-3.44.68s.78,2.75,1.92,3.76a6.35,6.35,0,0,0,4.36,1.61C53.65,295.86,55.63,295.88,57.62,295.88Zm.06-79.75a14.42,14.42,0,0,1-2.08,0c-2.52-.39-3.25.68-3.13,3.13.19,3.67,0,3.68,3.79,3.68h3.27c3.55,0,3.37,0,3.59-3.57.16-2.69-.79-3.64-3.36-3.24A14.43,14.43,0,0,1,57.68,216.13Zm.38,52.25v0c-4.57,0-9.13,0-13.69,0-.9,0-2.34-.36-2.38,1,0,1.14,1.31,1,2.14,1q13.69.06,27.38,0c.81,0,2.11.2,2.07-1.05s-1.31-1-2.13-1C67,268.36,62.52,268.38,58.06,268.38Zm14,13.11h0c0,1.2,0,2.39,0,3.58a1.42,1.42,0,0,0,1,1.59,3,3,0,0,0,4.16-2.79c.07-1.68,0-3.37,0-5.06,0-2.13-1.26-2.63-3.09-2.7-2.1-.09-2.17,1.2-2.11,2.7C72.11,279.71,72.09,280.6,72.09,281.49ZM49,247.44c1.55-.66,2.2-1.4,2.19-2.79,0-6.13,0-12.26,0-18.39,0-.65.18-1.61-.76-1.66s-1.39.71-1.39,1.6C49,233.18,49,240.15,49,247.44Zm17.63-.23c0-6.49,0-12.71,0-18.93,0-.79,0-1.58-.08-2.37a1.31,1.31,0,0,0-1.29-1.36c-1.07,0-.82.95-.83,1.56,0,6.23,0,12.46,0,18.69C64.41,246.07,65,246.81,66.63,247.21Zm-15.7,1.26h13.9C62.46,246.33,53,246.42,50.93,248.47Z" transform="translate(-40.47 -214.76)"/><path d="M447.56,296.91c-5.66,0-11.32,0-17,0-1.62,0-3.11-.12-2.95-2.29.13-1.7-.9-4.1,2.19-4.26,1.55-.08,2-.84,2-2.29q-.06-18.16,0-36.33a5.26,5.26,0,0,0-.92-2.77c-1.17-2-2.3-3.94-3.52-5.88-1.06-1.68-.81-2.63,1.34-2.45s3.12-.41,3.58-2.71c.9-4.52,3.9-6.9,8.76-7.6,1.92-.28,4.2.17,3.73-3.24-.22-1.54,1.37-2.64,3.07-2.56,1.95.08,3.39,1.28,3.14,3.21-.28,2.12.79,2.16,2.27,2.38,8,1.23,10.5,4.16,10.64,12.28,0,.6,0,1.2,0,1.79.06,1.48-.25,3.13.3,4.41.73,1.68,2.66.54,4,.87,2,.49,3.22,1.69,3.25,3.71.08,6.35.14,12.7,0,19.05-.06,2.68-1.54,3.83-4.69,3.71-2.28-.09-3,.71-2.89,2.88.14,2.38,0,4.76,0,7.15,0,2.13-.48,4.14,2.85,4.7,2.19.38,1,3.05,1.06,4.69s-1.25,1.54-2.36,1.54Zm-9.16-15.34,0-1.09c2.12,0,4.25-.07,6.37,0,1.7.08,2.5-.38,2.49-2.31q-.12-15.19,0-30.4c0-1.65-.5-2.33-2.2-2.28-3.18.08-6.37.11-9.54,0-1.83-.07-2.39.55-2.39,2.37q.1,20,0,39.94c0,2,.8,2.55,2.65,2.54q12.22-.09,24.44,0c1.74,0,2.48-.56,2.48-2.41q-.07-20.12,0-40.23c0-1.72-.68-2.24-2.3-2.18-2.88.09-5.77.16-8.64,0-2.41-.15-3.29.53-3.25,3.1.14,9.53.12,19.07,0,28.61,0,2.55.62,3.56,3.32,3.38,1.77-.12,3.8-.73,6.05,1ZM448,240.62c4.16,0,8.32-.05,12.48,0,1.61,0,2.07-.52,1.82-2.11a8,8,0,0,0-6.65-6.7,41,41,0,0,0-15.65,0,8.11,8.11,0,0,0-6.62,6.44c-.42,1.64,0,2.36,1.84,2.32C439.44,240.56,443.7,240.61,448,240.62Zm-.32,50.94c-5.35,0-10.7,0-16.06,0-1.51,0-2.7,0-2.66,2.14.05,1.95,1.21,2,2.56,2q16.2,0,32.41,0c1.52,0,2.77-.16,2.73-2.18,0-2.18-1.55-1.92-2.92-1.92Zm16.24-29c0,3.08.1,6.15,0,9.22-.09,2.18.67,3,2.91,2.91,2.56-.09,3.57-1.34,3.58-3.71q0-6.54,0-13.09a41.26,41.26,0,0,0-.08-4.45c-.31-2.74-2.39-2.71-4.46-2.72-2.23,0-1.89,1.59-1.9,2.92C463.86,256.64,463.89,259.62,463.88,262.59ZM448.27,242c-4.36,0-8.72,0-13.08,0-.8,0-2-.35-2,1.1s1.2,1.08,2,1.08q12.64,0,25.27,0c.84,0,2,.23,2-1.14s-1.22-1-2-1.05C456.39,241.94,452.33,242,448.27,242Zm1.37-14.24a1.66,1.66,0,0,0-1.6-1.83,1.73,1.73,0,0,0-2.11,1.88c.06.83.12,2,1.59,2.1S449.54,229.33,449.64,227.73Zm-20.81,14.44c.84,2.69,1.26,3.34,2.86,4.4C431.82,241.94,431.82,241.94,428.83,242.17Z" transform="translate(-40.47 -214.76)"/><path d="M261.38,255.87c6-1.24,6-1.24,6-7.23,0-2.48,0-5,0-7.45,0-1.91-.94-2.78-2.95-2.89s-2.73.73-3,2.67c-.87,6.69-1.34,13.5-3.09,20a17.16,17.16,0,0,0,0,10.06c1.8,6.43,2.12,13.29,3,20,.48,3.73-1.4,5.89-5.2,5.92q-11.18.08-22.34,0c-3.78,0-5.66-2.25-5.17-5.95.89-6.78,1.83-13.56,2.73-20.35a3,3,0,0,1,1.28-2.46,2.7,2.7,0,0,0,0-4.4,2.87,2.87,0,0,1-1.3-2.44c-.46-3.34-1.21-6.67-1.37-10a14,14,0,0,0-5.25-10.51c-.86-.73-2-1.56-1.32-3,.6-1.26,1.87-.92,2.92-.91a6.84,6.84,0,0,0,3.64-1.1,28.88,28.88,0,0,1,9.68-3.68c1.51-.28,2.86-.43,2.18-2.78-.52-1.79,1.35-3.53,3.15-3.51s3.66,1.76,3.1,3.55c-.74,2.41.73,2.44,2.18,2.71a28,28,0,0,1,8.12,2.82c2.18,1.19,4.23,2.33,6.91,2.24,2.15-.07,3.38,1.46,3.39,3.72,0,3.78.05,7.55,0,11.32C268.61,256.27,265.87,257.81,261.38,255.87Zm-11.5,34c-.3-5.14-.53-10.49-.94-15.83-.37-4.8-.46-4.72-5.42-4.59-1.78,0-2.38.61-2.46,2.41-.27,6.44-.81,12.88-1.05,19.32-.18,4.91-1.12,4.53,4.51,4.51C250.93,295.64,250,296.22,249.88,289.83Zm0-45.64c.08-6.57,1.24-6.06-5.38-6.1-.69,0-1.39,0-2.08,0-1.92-.14-2.65.65-2.5,2.62.41,5.64.62,11.3,1,16.93.38,5,.46,4.94,5.49,4.83,1.87,0,2.34-.79,2.42-2.47C249.13,254.55,249.53,249.1,249.86,244.19Zm-10.18,29.33c-.32-.95.92-2.9-.49-3.72-1.59-.93-3.71-.57-5.53-.19-1.44.29-1.16,1.93-1.31,3-.77,5.5-1.36,11-2.15,16.51s.35,6.77,5.91,6.56c1.72-.07,2.42-.59,2.49-2.42C238.86,286.84,239.29,280.41,239.68,273.52Zm10.54-.74c.38,7.05.74,13.78,1.12,20.51,0,.86-.15,2,1,2.17,2.15.25,4.41.72,6.36-.62s1.34-3.36,1.1-5.2c-.7-5.6-1.51-11.18-2.21-16.78-.45-3.55-.75-3.66-5.57-3.44C249,269.56,250.55,271.76,250.22,272.78Zm0-13.66c.14.73-.75,2.31.4,2.92,1.67.88,3.7.56,5.53.23,1.51-.26,1.24-1.84,1.41-2.94.72-4.9,1.43-9.8,2-14.71,1-8.17,2.62-6.21-6.07-6.59-1.62-.07-2.19.66-2.25,2.31C251,246.47,250.62,252.6,250.24,259.12Zm-16.17-21v0a10.44,10.44,0,0,1-1.48,0c-2.44-.32-3.32.44-2.85,3.1,1,5.55,1.68,11.16,2.42,16.75.64,4.83.59,4.76,5.51,4.53,1.73-.08,2.2-.75,2.1-2.36q-.68-10.08-1.2-20.18c-.07-1.26-.63-1.78-1.82-1.79Zm11,30c2.68,0,5.35,0,8,0,1.5,0,2.08-.6,2.09-2.15s-.36-2.45-2.11-2.43c-5.36,0-10.72.07-16.07,0-1.55,0-2.13.59-2.12,2.1s.37,2.49,2.14,2.46C239.69,268.11,242.37,268.15,245.05,268.15Zm13.44-31.49c-8.39-5-20.68-4.94-26.51,0ZM245,227.07c-1.18.28-2.14.85-1.92,2.16.17.92.06,2.24,1.65,2.32s1.88-1.13,2.06-2.27C247,227.94,246.13,227.39,245,227.07ZM228.3,242.7c.07-4.65-.49-5.18-3.79-4.09Z" transform="translate(-40.47 -214.76)"/><path d="M139,262.32a28.6,28.6,0,0,1,7.41-.39c2.23,0,2.86-.71,2-2.88s-1.78-3.21-4.32-2.94-4.49-1.32-5.48-3.76a4.63,4.63,0,0,1,1.77-5.78,1.76,1.76,0,0,0,.54-2.72,22.22,22.22,0,0,1-1.06-2.13c-1.14-2.56-.59-3.61,2.12-3.62q14.74-.07,29.48,0c2.6,0,3.19,1.08,2,3.45-2.65,5.44-5.4,10.82-8.05,16.26-1.57,3.21-1.29,3.67,2.25,4.1a5,5,0,0,1,4.46,3.43,2.21,2.21,0,0,0,2.87,1.74,7.71,7.71,0,0,1,1.18-.06c5.5-.06,8.59,1.83,10.07,6.13a11.13,11.13,0,0,1-3.95,12.73c-1.44,1-1.85,1.62-1.2,3.47,1.75,5-.51,7.87-5.78,7.87-11.41,0-22.83,0-34.24,0-2.26,0-4.48,0-5.73-2.28-1.4-2.53-.85-5.1.62-7.33,1-1.46,1.82-2.79,1.61-4.58a.59.59,0,0,1,0-.3c2-3.7,2.72-7.95,4.7-11.6,2.14-3.92,2-5.44-1.74-7.62A17.05,17.05,0,0,1,139,262.32Zm18.94,33.57c5.66,0,11.32,0,17,0,1.85,0,3.95.39,4.95-1.8a5.67,5.67,0,0,0-1.15-6.36,4.4,4.4,0,0,1-1.23-3.47c.16-2-.9-2.88-2.83-3a39.43,39.43,0,0,0-10.95.85c-7.63,1.75-15.25,2.82-22.84-.09-1.35-.51-2,0-1.93,1.24a7.46,7.46,0,0,1-1.88,5.09,5.39,5.39,0,0,0-.57,5.9c1,2,3,1.6,4.76,1.6C146.79,295.89,152.35,295.88,157.91,295.89Zm-18.09-15.67c5.09,2,9.8,3,14.68,2.24,6.93-1.08,13.75-3,21-2.47-.43-1-1.06-1.71-1-2.36.55-4.64-3.59-7.71-3.91-12.13-.13-1.9-2.41-2.49-4.33-2.23-1.34.19-3.33-1-3.87,1-.45,1.67-1.41,1.65-2.6,1.66-1.89,0-3.77,0-5.66,0-1.54,0-3.31.38-3.57-2-.08-.74-.89-.65-1.47-.66-1.77,0-3.54,0-5.53,0,1.93,3.19,2.22,6.05-.39,8.81a4.9,4.9,0,0,0-1.26,3.58A5.17,5.17,0,0,1,139.82,280.22Zm33-40.43a7.94,7.94,0,0,0-1.52-.36c-9.61,0-19.23,0-28.85,0-2.31,0-1.8,1.13-1.15,2.44,2.37,4.79,5.44,9.37,6.92,14.43,1.6,5.46,4.78,6.05,9.49,5.73,3.05-.2,5.85.13,6.18-4a6.92,6.92,0,0,1,1-2.13Zm6.41,43.35c3.48-2.35,4.65-5.77,3.15-9.19-1.22-2.78-3.68-3.61-7.75-2.62C175.68,275.38,176.46,279.54,179.24,283.14Zm-.12,2.87a8.57,8.57,0,0,0,6-6.11c1-3.6.66-7.1-2.36-9.79-2.33-2.08-6.65-2.44-9.59-.92.87.8,1.89.35,2.8.35,4.57,0,6.66,1.14,7.83,4.41a8.6,8.6,0,0,1-3.13,10C180.06,284.4,179.15,284.54,179.12,286ZM146,254.4c-1-2-2-3.92-2.83-5.88s-1.88-1.29-2.81-.15a3.37,3.37,0,0,0-.09,4.4A4.41,4.41,0,0,0,146,254.4Zm14.65,9.46c-2.8-.52-5.56-.86-8.25.15A13.28,13.28,0,0,0,160.62,263.86Z" transform="translate(-40.47 -214.76)"/><path d="M360.93,257.91a7.68,7.68,0,0,0,.95,3.1c.53,1.34.48,2.76-.64,3.54-1.71,1.19-1.26,2.32-.57,3.77,2.1,4.39,4.1,8.82,6.15,13.23a17,17,0,0,1,1.61,5.39c.67,5.85-2.78,9.88-8.68,9.93q-12.51.12-25,0c-6.33-.07-9.7-4.36-8.69-10.69.61-3.81,2.74-7,4.18-10.46.91-2.19,2-4.33,3-6.47.85-1.77,2-3.41-.38-5.08-1-.71-.94-2.2-.31-3.31a12.88,12.88,0,0,0,0-13.31,2.21,2.21,0,0,1-.19-2.28c1.84-2.37.42-4.48-.34-6.65a22.17,22.17,0,0,1-1.07-3.09c-.43-2.34.8-3.93,3.19-4q13-.1,25.92,0c2.72,0,3.93,1.73,3.28,4.39A22.8,22.8,0,0,1,362,239.6c-.79,1.84-1.49,3.47-.08,5.52,1.15,1.67-.76,3.32-1,5l0,.09.06-.11a4.75,4.75,0,0,1,2.51-.77,2.8,2.8,0,0,1,2.69,2.67,2.48,2.48,0,0,1-2.17,3,21.28,21.28,0,0,1-3.21.22c1.33,3.16,4.47,3.91,6.79,5.63-2.84.24-4.82-1.18-6.61-3l-.11-.07Zm6.28,27.63c-3.16-6.81-6-12.89-8.81-19-.41-.89-1.27-.81-2.06-.81-6.15,0-12.3,0-18.45,0a2,2,0,0,0-2.15,1.2c-2.55,5.59-5.1,11.18-7.71,16.74-.65,1.39-.14,1.95,1.16,2.35,3.73,1.15,7.54,2.06,11.42,1.53C349.2,286.37,357.67,284,367.21,285.54Zm-40,1.47c-.15,5.31,1.93,8.34,6.3,8.46,9,.24,18.07.21,27.11,0,3.74-.08,5.95-2.56,6.51-6.2.25-1.7-.15-2.51-2.07-2.73a48.19,48.19,0,0,0-13.93.49c-5.84,1.07-11.63,2.8-17.66,1.37C331.5,288,329.48,287.52,327.25,287Zm20.24-54.09h0c-4.27,0-8.55,0-12.82,0-2.21,0-2.84,1.11-2.27,3.06.39,1.32,1.11,2.57,1.42,3.91.57,2.52,2.1,3.12,4.53,3,5-.17,9.93-.06,14.89-.07,6.32,0,6.32,0,8.36-6,.06-.19.16-.37.21-.56.73-2.48.15-3.36-2.4-3.4C355.43,232.88,351.46,232.92,347.49,232.92Zm-.39,31.47c3.67,0,7.34.05,11,0,2.49-.06,3.16-1.14,2.32-3.46a20.78,20.78,0,0,1-1.35-3.61c-.34-2.06-1.51-2.4-3.34-2.36-4.46.1-8.92,0-13.39,0-6.29,0-6.29,0-8.38,5.8-.91,2.54-.29,3.54,2.42,3.59C340,264.43,343.53,264.38,347.1,264.39Zm.23-20.18c-3.76,0-7.52-.07-11.28,0-2.34.06-2.94,1.07-2.17,3.3a43.37,43.37,0,0,1,1.51,4.17c.37,1.59,1.26,2,2.75,1.95,4.64-.07,9.3,0,13.95,0,6.14,0,6.14,0,8.26-5.83.95-2.6.4-3.52-2.33-3.57C354.46,244.15,350.9,244.21,347.33,244.21Zm13.39,9.3c1.58.46,3,1,4-.67a1.33,1.33,0,0,0-.85-1.91C361.88,250.36,361.42,251.93,360.72,253.51Z" transform="translate(-40.47 -214.76)"/><path d="M160.23,249.23c-1-.19-1.7-.7-1.61-1.77a1.67,1.67,0,1,1,3.33.15C161.93,248.68,161.2,249.12,160.23,249.23Z" transform="translate(-40.47 -214.76)"/><path d="M154.5,247.25c0,1.25-.51,1.86-1.53,1.94a1.49,1.49,0,0,1-1.73-1.54,1.64,1.64,0,0,1,3.26-.4Z" transform="translate(-40.47 -214.76)"/><path d="M158.2,253.22c0,1-.48,1.69-1.55,1.72a1.63,1.63,0,1,1,1.55-1.72Z" transform="translate(-40.47 -214.76)"/><path d="M348.4,270.56c-.16.77-.63,1.22-1.41,1.09a1.14,1.14,0,0,1-1-1.46,1.12,1.12,0,0,1,1.24-1A1.18,1.18,0,0,1,348.4,270.56Z" transform="translate(-40.47 -214.76)"/><path d="M347.31,277.17a1.15,1.15,0,0,1-1.33-.92,1.16,1.16,0,0,1,1.08-1.47,1.13,1.13,0,0,1,1.33,1.22C348.42,276.7,348,277.06,347.31,277.17Z" transform="translate(-40.47 -214.76)"/><path d="M352.72,239.07c-.79-.07-1.36-.43-1.28-1.29a1.25,1.25,0,0,1,1.41-1.21,1.15,1.15,0,0,1,1.11,1.17C354,238.59,353.53,239,352.72,239.07Z" transform="translate(-40.47 -214.76)"/><path d="M342.9,237.85a1.22,1.22,0,0,1-1.4,1.17,1,1,0,0,1-1.11-1.09,1.21,1.21,0,0,1,1.21-1.37A1.29,1.29,0,0,1,342.9,237.85Z" transform="translate(-40.47 -214.76)"/><path d="M348.42,237.56c0,.92-.39,1.35-1,1.43a1.11,1.11,0,0,1-1.42-1.11,1.17,1.17,0,0,1,1-1.26C347.84,236.46,348.2,237.06,348.42,237.56Z" transform="translate(-40.47 -214.76)"/></svg>